<?xml version="1.0" encoding="utf-8"?>
<!-- Generator: Adobe Illustrator 23.0.4, SVG Export Plug-In . SVG Version: 6.00 Build 0)  -->
<!DOCTYPE svg PUBLIC "-//W3C//DTD SVG 1.1//EN" "http://www.w3.org/Graphics/SVG/1.1/DTD/svg11.dtd" [
	<!ENTITY ns_extend "http://ns.adobe.com/Extensibility/1.0/">
	<!ENTITY ns_ai "http://ns.adobe.com/AdobeIllustrator/10.0/">
	<!ENTITY ns_graphs "http://ns.adobe.com/Graphs/1.0/">
	<!ENTITY ns_vars "http://ns.adobe.com/Variables/1.0/">
	<!ENTITY ns_imrep "http://ns.adobe.com/ImageReplacement/1.0/">
	<!ENTITY ns_sfw "http://ns.adobe.com/SaveForWeb/1.0/">
	<!ENTITY ns_custom "http://ns.adobe.com/GenericCustomNamespace/1.0/">
	<!ENTITY ns_adobe_xpath "http://ns.adobe.com/XPath/1.0/">
]>
<svg version="1.1" xmlns:x="&ns_extend;" xmlns:i="&ns_ai;" xmlns:graph="&ns_graphs;"
	 xmlns="http://www.w3.org/2000/svg" xmlns:xlink="http://www.w3.org/1999/xlink" x="0px" y="0px" viewBox="0 0 512 512"
	 style="enable-background:new 0 0 512 512;" xml:space="preserve">
<style type="text/css">
	.st0{fill:#1D1D1B;}
	.st1{fill:#EC6665;}
	.st2{fill:#FFFFFF;}
	.st3{display:none;}
	.st4{display:inline;fill:#FFFF00;}
	.st5{display:inline;fill:none;stroke:#FCFC06;stroke-miterlimit:10;}
	.st6{display:inline;fill:#FFFFFF;stroke:#000000;stroke-miterlimit:10;}
</style>
<metadata>
	<sfw  xmlns="&ns_sfw;">
		<slices></slices>
		<sliceSourceBounds  bottomLeftOrigin="true" height="1044" width="3823" x="-1937" y="-778"></sliceSourceBounds>
		<optimizationSettings>
			<targetSettings  fileFormat="PNG24Format" targetSettingsID="0">
				<PNG24Format  filtered="false" interlaced="true" matteColor="#FFFFFF" noMatteColor="true" transparency="false">
					</PNG24Format>
			</targetSettings>
		</optimizationSettings>
	</sfw>
</metadata>
<g id="mesa_1">
</g>
<g id="coral_y_blanco">
	<rect class="st1" width="512" height="512"/>
	<path id="LUPITA_LISTO_5_" class="st2" d="M479.6,479.6c-17.2,17.2-42.8,20.8-63.5,10.9c-5.6-2.6-10.8-6.3-15.4-10.9
		c0,0-147.2-147.2-147.3-147.3c-4.9-4.8-12.2-5.9-18.4-3.8c-0.5,0.2-1,0.4-1.5,0.6c-17.2,7.2-36.3,10-56,10
		C88.3,339.1,16,266.8,16,177.5S88.3,16,177.5,16s161.5,72.3,161.5,161.5c0,24.2-5.3,47.1-14.9,67.7c-1.9,4.1-4,8.1-6.1,12
		c-0.3,0.6-0.7,1.2-1.1,1.8c0,0,0,0,0,0.1c-0.6,1-1.5,2-2.3,2.8c-7.2,7.2-18.7,7.3-26,0.3c-0.1-0.1-0.2-0.2-0.4-0.3
		c-0.1-0.1-0.2-0.2-0.3-0.3c-5.6-5.9-6.6-14.6-3-21.5c0.2-0.3,0.4-0.6,0.5-1c4.1-7.1,7.5-14.6,10.1-22.6c4.1-12.3,6.3-25.5,6.3-39.1
		c0-68.7-55.7-124.3-124.3-124.3S53.2,108.9,53.2,177.5c0,68.7,55.7,124.3,124.3,124.3c13.7,0,26.8-2.2,39.1-6.3
		c7.5-2.5,14.7-5.7,21.5-9.5c0,0,0.1,0,0.1-0.1c0.9-0.5,1.7-1,2.7-1.5c6.4-3.3,14.6-2.2,20,2.9c0.5,0.4,1.8,1.8,1.8,1.8l15,15
		L427,453.3c7.2,7.2,18.7,7.3,26,0.3c0.1-0.1,0.2-0.2,0.3-0.3l0.3-0.3c6.9-7.3,6.8-18.8-0.3-26L327.7,301.4c-7.3-7.3-7.3-19,0-26.3
		c7-7,18.3-7.3,25.6-0.7c0.2,0.2,126.3,126.3,126.3,126.3c4.6,4.6,8.3,9.8,10.9,15.4C500.5,436.9,496.8,462.5,479.6,479.6z"/>
</g>
<g id="mesa_3">
</g>
<g id="mesa_4">
	<g id="LOGO_LL">
	</g>
</g>
<g id="mesa_5">
	<g id="LOGO_LL_bco.">
	</g>
	<g id="Medidas" class="st3">
		<rect id="_x2E_70_izq" x="265" y="193.1" class="st4" width="70" height="48.9"/>
	</g>
</g>
<g id="mesa_6">
	<g id="LOGO_LL_bco._copia">
	</g>
</g>
<g id="mesa_7">
	<g id="medidas_letras" class="st3">
	</g>
</g>
<g id="mesa_9">
</g>
</svg>
