<svg xmlns="http://www.w3.org/2000/svg" viewBox="0 0 150 150"><defs><style>.cls-1,.cls-2{fill:none;stroke:#000;stroke-miterlimit:10;}.cls-1{stroke-linecap:round;}</style></defs><title>Mesa de trabajo 3</title><g id="De_antro" data-name="De antro"><g id="Martini"><path class="cls-1" d="M72.24,93.47l-4.89,3.26a1,1,0,0,0,.58,1.77H82.07a1,1,0,0,0,.6-1.76l-7.44-4.52a.51.51,0,0,1-.23-.43V69.66"/><path d="M93.57,45.87a1.25,1.25,0,0,1,1.17.77A1.24,1.24,0,0,1,94.5,48L75.93,67.77a1.28,1.28,0,0,1-1.86,0L55.5,48a1.24,1.24,0,0,1-.24-1.38,1.25,1.25,0,0,1,1.17-.77H93.57m0-1H56.43a2.28,2.28,0,0,0-1.66,3.83L73.34,68.45a2.27,2.27,0,0,0,3.32,0L95.23,48.7a2.28,2.28,0,0,0-1.66-3.83Z"/><path class="cls-2" d="M59,52a56.25,56.25,0,0,1,11-.73c2.32.19,7,.66,9.18.36,5.51-.73,10.29-.36,12.13.37"/><circle class="cls-2" cx="76.1" cy="60.3" r="3.86"/><line class="cls-1" x1="90.61" y1="35.5" x2="78.49" y2="56.81"/></g></g><g id="Texto"><path d="M48.5,127.52V121h2.75a3,3,0,0,1,.51.07,2.13,2.13,0,0,1,.49.15,1.93,1.93,0,0,1,.46.26,1.81,1.81,0,0,1,.53.57,3.06,3.06,0,0,1,.33.71,4,4,0,0,1,.17.76,4.43,4.43,0,0,1,0,.7,4.87,4.87,0,0,1,0,.66,4.67,4.67,0,0,1-.13.65,3.22,3.22,0,0,1-.24.61,2.25,2.25,0,0,1-.37.54,1.83,1.83,0,0,1-.49.4,2,2,0,0,1-.56.24,3,3,0,0,1-.61.12c-.21,0-.42,0-.64,0Zm.61-.52h1.47a6.53,6.53,0,0,0,.78,0,2.24,2.24,0,0,0,.74-.25,1.42,1.42,0,0,0,.53-.44,2.4,2.4,0,0,0,.33-.61,3.17,3.17,0,0,0,.17-.69,5.6,5.6,0,0,0,0-.69,4.31,4.31,0,0,0,0-.71,2.66,2.66,0,0,0-.17-.7,2,2,0,0,0-.34-.6,1.69,1.69,0,0,0-.56-.45,1.75,1.75,0,0,0-.68-.2,7,7,0,0,0-.8,0H49.11Z"/><path d="M56.35,127.52V121h4.31v.52H57v2.34H60.3v.52H57V127h3.79v.52Z"/><path d="M66.45,127.52,69,121h.69l2.49,6.48h-.63l-.75-2h-3l-.77,2ZM68.06,125h2.53l-1.26-3.4Z"/><path d="M75,121.87h0v5.65h-.62V121h.7l3.74,5.66h0V121h.61v6.48h-.71Z"/><path d="M81.67,121h4.71v.52h-2v6h-.61v-6h-2Z"/><path d="M89.21,124.58v2.94h-.62V121h2.54a2.8,2.8,0,0,1,1.64.4,1.48,1.48,0,0,1,.57,1.3,1.72,1.72,0,0,1-.25,1,1.94,1.94,0,0,1-.8.62.93.93,0,0,1,.44.28,1.36,1.36,0,0,1,.25.44,2.1,2.1,0,0,1,.1.51,4.67,4.67,0,0,1,0,.52c0,.25,0,.45,0,.61s0,.3.06.4a1.84,1.84,0,0,0,.07.24.47.47,0,0,0,.11.13v.05h-.67a1.19,1.19,0,0,1-.14-.45c0-.19,0-.39-.07-.6s0-.42,0-.61a4.69,4.69,0,0,0,0-.49,1,1,0,0,0-.18-.42.85.85,0,0,0-.29-.24,1.41,1.41,0,0,0-.38-.11l-.44,0Zm1.91-.52a2.59,2.59,0,0,0,.63-.08,1.31,1.31,0,0,0,.51-.23,1,1,0,0,0,.34-.4,1.27,1.27,0,0,0,.13-.58,1.33,1.33,0,0,0-.13-.6,1,1,0,0,0-.36-.36,1.3,1.3,0,0,0-.5-.19,2.88,2.88,0,0,0-.59-.06H89.21v2.5Z"/><path d="M95.71,124.29A4.41,4.41,0,0,1,95.9,123a3.23,3.23,0,0,1,.57-1.09,2.62,2.62,0,0,1,.94-.73,2.9,2.9,0,0,1,1.28-.27,3.22,3.22,0,0,1,1.33.26,2.66,2.66,0,0,1,1,.73,3.17,3.17,0,0,1,.58,1.09,4.52,4.52,0,0,1,.19,1.34,4.34,4.34,0,0,1-.19,1.32,3.28,3.28,0,0,1-.57,1.08,2.66,2.66,0,0,1-1,.73,3.31,3.31,0,0,1-2.62,0,2.66,2.66,0,0,1-1-.73,3.28,3.28,0,0,1-.57-1.08A4.68,4.68,0,0,1,95.71,124.29Zm3,2.88a2.27,2.27,0,0,0,1.08-.24,2.11,2.11,0,0,0,.75-.63,2.78,2.78,0,0,0,.43-.92,4.34,4.34,0,0,0,.14-1.09,3.81,3.81,0,0,0-.17-1.21,2.55,2.55,0,0,0-.48-.91,2,2,0,0,0-.76-.58,2.53,2.53,0,0,0-1-.2,2.25,2.25,0,0,0-1.07.24,2.16,2.16,0,0,0-.75.65,2.52,2.52,0,0,0-.43.92,3.93,3.93,0,0,0-.14,1.09,4,4,0,0,0,.14,1.1,2.6,2.6,0,0,0,.43.92,2.11,2.11,0,0,0,.75.63A2.41,2.41,0,0,0,98.73,127.17Z"/><path d="M48.5,127.52V121h2.75a3,3,0,0,1,.51.07,2.13,2.13,0,0,1,.49.15,1.93,1.93,0,0,1,.46.26,1.81,1.81,0,0,1,.53.57,3.06,3.06,0,0,1,.33.71,4,4,0,0,1,.17.76,4.43,4.43,0,0,1,0,.7,4.87,4.87,0,0,1,0,.66,4.67,4.67,0,0,1-.13.65,3.22,3.22,0,0,1-.24.61,2.25,2.25,0,0,1-.37.54,1.83,1.83,0,0,1-.49.4,2,2,0,0,1-.56.24,3,3,0,0,1-.61.12c-.21,0-.42,0-.64,0Zm.61-.52h1.47a6.53,6.53,0,0,0,.78,0,2.24,2.24,0,0,0,.74-.25,1.42,1.42,0,0,0,.53-.44,2.4,2.4,0,0,0,.33-.61,3.17,3.17,0,0,0,.17-.69,5.6,5.6,0,0,0,0-.69,4.31,4.31,0,0,0,0-.71,2.66,2.66,0,0,0-.17-.7,2,2,0,0,0-.34-.6,1.69,1.69,0,0,0-.56-.45,1.75,1.75,0,0,0-.68-.2,7,7,0,0,0-.8,0H49.11Z"/><path d="M56.35,127.52V121h4.31v.52H57v2.34H60.3v.52H57V127h3.79v.52Z"/><path d="M66.45,127.52,69,121h.69l2.49,6.48h-.63l-.75-2h-3l-.77,2ZM68.06,125h2.53l-1.26-3.4Z"/><path d="M75,121.87h0v5.65h-.62V121h.7l3.74,5.66h0V121h.61v6.48h-.71Z"/><path d="M81.67,121h4.71v.52h-2v6h-.61v-6h-2Z"/><path d="M89.21,124.58v2.94h-.62V121h2.54a2.8,2.8,0,0,1,1.64.4,1.48,1.48,0,0,1,.57,1.3,1.72,1.72,0,0,1-.25,1,1.94,1.94,0,0,1-.8.62.93.93,0,0,1,.44.28,1.36,1.36,0,0,1,.25.44,2.1,2.1,0,0,1,.1.51,4.67,4.67,0,0,1,0,.52c0,.25,0,.45,0,.61s0,.3.06.4a1.84,1.84,0,0,0,.07.24.47.47,0,0,0,.11.13v.05h-.67a1.19,1.19,0,0,1-.14-.45c0-.19,0-.39-.07-.6s0-.42,0-.61a4.69,4.69,0,0,0,0-.49,1,1,0,0,0-.18-.42.85.85,0,0,0-.29-.24,1.41,1.41,0,0,0-.38-.11l-.44,0Zm1.91-.52a2.59,2.59,0,0,0,.63-.08,1.31,1.31,0,0,0,.51-.23,1,1,0,0,0,.34-.4,1.27,1.27,0,0,0,.13-.58,1.33,1.33,0,0,0-.13-.6,1,1,0,0,0-.36-.36,1.3,1.3,0,0,0-.5-.19,2.88,2.88,0,0,0-.59-.06H89.21v2.5Z"/><path d="M95.71,124.29A4.41,4.41,0,0,1,95.9,123a3.23,3.23,0,0,1,.57-1.09,2.62,2.62,0,0,1,.94-.73,2.9,2.9,0,0,1,1.28-.27,3.22,3.22,0,0,1,1.33.26,2.66,2.66,0,0,1,1,.73,3.17,3.17,0,0,1,.58,1.09,4.52,4.52,0,0,1,.19,1.34,4.34,4.34,0,0,1-.19,1.32,3.28,3.28,0,0,1-.57,1.08,2.66,2.66,0,0,1-1,.73,3.31,3.31,0,0,1-2.62,0,2.66,2.66,0,0,1-1-.73,3.28,3.28,0,0,1-.57-1.08A4.68,4.68,0,0,1,95.71,124.29Zm3,2.88a2.27,2.27,0,0,0,1.08-.24,2.11,2.11,0,0,0,.75-.63,2.78,2.78,0,0,0,.43-.92,4.34,4.34,0,0,0,.14-1.09,3.81,3.81,0,0,0-.17-1.21,2.55,2.55,0,0,0-.48-.91,2,2,0,0,0-.76-.58,2.53,2.53,0,0,0-1-.2,2.25,2.25,0,0,0-1.07.24,2.16,2.16,0,0,0-.75.65,2.52,2.52,0,0,0-.43.92,3.93,3.93,0,0,0-.14,1.09,4,4,0,0,0,.14,1.1,2.6,2.6,0,0,0,.43.92,2.11,2.11,0,0,0,.75.63A2.41,2.41,0,0,0,98.73,127.17Z"/></g></svg>