<svg xmlns="http://www.w3.org/2000/svg" viewBox="0 0 150 150"><defs><style>.cls-1,.cls-2,.cls-3,.cls-4,.cls-5{fill:none;stroke:#000;stroke-miterlimit:10;}.cls-1,.cls-2,.cls-3,.cls-4{stroke-linecap:round;}.cls-2,.cls-3,.cls-4{stroke-width:0.5px;}.cls-2{stroke-dasharray:1 2;}.cls-4{stroke-dasharray:1 2;}</style></defs><title>Mesa de trabajo 2</title><g id="Casual"><g id="icono"><path id="blusa" class="cls-1" d="M55.5,38.5c1,2,3.59,3.38,7.25,3.38s6.72-2.39,8.67-6.06a.41.41,0,0,1,.47-.21,15.32,15.32,0,0,1,4.52,1.94,8.26,8.26,0,0,1,3.52,4.33c.46,1.16,1.65,6,2.06,7.46a.43.43,0,0,1-.28.51l-6,1.91a.42.42,0,0,1-.53-.28l-1.5-5c-.27-.54-1.89,7.57-1.89,11.36,0,3.24.2,8.25.26,9.64a.42.42,0,0,1-.32.41,26.78,26.78,0,0,1-7.24.77H61a26.4,26.4,0,0,1-7.2-.77.42.42,0,0,1-.36-.41c.06-1.4.26-6.41.26-9.64,0-3.79-1.62-11.9-1.89-11.36l-1.5,5a.42.42,0,0,1-.53.28l-6-1.91a.43.43,0,0,1-.28-.51c.41-1.48,1.6-6.3,2.06-7.46a8.26,8.26,0,0,1,3.52-4.33,14.18,14.18,0,0,1,4.75-2l0,0"/><g id="Pantalon"><line class="cls-2" x1="70.91" y1="86.34" x2="77.42" y2="82.74"/><path class="cls-3" d="M87.19,68.91s0,.19-.08.49"/><path class="cls-4" d="M86.63,71.35a8.77,8.77,0,0,1-1.5,3,14,14,0,0,1-3.67,2.84"/><path class="cls-3" d="M80.57,77.61l-.46.19"/><path class="cls-3" d="M103.72,76.25a6.06,6.06,0,0,1-3.86-2.06A7.74,7.74,0,0,1,97.8,69.3"/><path class="cls-3" d="M79.6,76.25a6.06,6.06,0,0,0,3.86-2.06,7.74,7.74,0,0,0,2.06-4.89"/><path class="cls-3" d="M96.12,68.91l.08.49"/><path class="cls-4" d="M96.68,71.35a9.15,9.15,0,0,0,1.5,3,14.16,14.16,0,0,0,3.67,2.84"/><path class="cls-3" d="M102.74,77.61l.46.19"/><g id="_3_pt" data-name="3 pt"><path class="cls-1" d="M80.67,66.6,76.82,98.22a.38.38,0,0,0,.38.43H88a.38.38,0,0,0,.37-.31l3.07-15a.14.14,0,0,1,.28,0l3.14,15a.39.39,0,0,0,.38.31h10.83a.38.38,0,0,0,.39-.43l-3.77-31.41a.39.39,0,0,0-.39-.34H91.62"/><polyline class="cls-5" points="80.5 68.91 91.83 68.91 91.49 68.91 102.82 68.91"/><line class="cls-1" x1="91.7" y1="66.47" x2="83.58" y2="66.47"/><path class="cls-5" d="M91.49,66.47V77.15a.26.26,0,0,0,.26.26h.47a1.28,1.28,0,0,0,1.28-1.29h0V68.91"/><path class="cls-5" d="M76.81,98.26,70,85a.4.4,0,0,1,.18-.54l6-3a.41.41,0,0,1,.5.12l1.86,2.56"/><line class="cls-5" x1="90.2" y1="89.25" x2="94.83" y2="98.01"/></g></g></g></g><g id="Texto"><path d="M59.2,122.92a1.9,1.9,0,0,0-.7-1.18,2.36,2.36,0,0,0-1.34-.35,2,2,0,0,0-1,.24,1.92,1.92,0,0,0-.7.63,2.6,2.6,0,0,0-.4.91,4.28,4.28,0,0,0-.13,1.09,4.65,4.65,0,0,0,.11,1.06,2.89,2.89,0,0,0,.37.94,2.11,2.11,0,0,0,.7.66,2.22,2.22,0,0,0,1.11.25A2.06,2.06,0,0,0,58,127a2,2,0,0,0,.6-.37,2.38,2.38,0,0,0,.43-.56,2.73,2.73,0,0,0,.26-.71h.64a3.67,3.67,0,0,1-.31.88A2.51,2.51,0,0,1,59,127a2.57,2.57,0,0,1-.82.5,3.19,3.19,0,0,1-1.13.18,2.77,2.77,0,0,1-1.27-.27,2.42,2.42,0,0,1-.87-.74,3.09,3.09,0,0,1-.49-1.09,5.53,5.53,0,0,1-.16-1.31,4.77,4.77,0,0,1,.23-1.57,2.83,2.83,0,0,1,.64-1.06,2.56,2.56,0,0,1,.95-.6,3.87,3.87,0,0,1,1.2-.18,3,3,0,0,1,.92.13,2.38,2.38,0,0,1,.76.39,2.13,2.13,0,0,1,.54.65,2.61,2.61,0,0,1,.29.88Z"/><path d="M61.86,127.52,64.4,121h.7l2.48,6.48H67l-.75-2h-3l-.76,2Zm1.6-2.55H66l-1.27-3.41Z"/><path d="M70.05,125.59a2,2,0,0,0,.2.73,1.43,1.43,0,0,0,1,.76,2.63,2.63,0,0,0,.7.09,2.31,2.31,0,0,0,.74-.11,1.44,1.44,0,0,0,.52-.29,1.13,1.13,0,0,0,.29-.43,1.44,1.44,0,0,0,.09-.51,1,1,0,0,0-.17-.61,1.28,1.28,0,0,0-.44-.39,3.58,3.58,0,0,0-.63-.23l-.73-.18c-.25-.06-.49-.12-.73-.2a2.33,2.33,0,0,1-.63-.32,1.59,1.59,0,0,1-.45-.51,1.61,1.61,0,0,1-.17-.78,1.65,1.65,0,0,1,.14-.65,1.62,1.62,0,0,1,.42-.56,2.08,2.08,0,0,1,.69-.39,3,3,0,0,1,1-.14,2.76,2.76,0,0,1,1,.15,2,2,0,0,1,.68.42,1.7,1.7,0,0,1,.4.62,2,2,0,0,1,.14.75H73.4a1.41,1.41,0,0,0-.13-.64,1.18,1.18,0,0,0-.35-.44,1.5,1.5,0,0,0-.52-.26,2.33,2.33,0,0,0-.59-.08,2.29,2.29,0,0,0-.79.13,1.47,1.47,0,0,0-.51.34,1.24,1.24,0,0,0-.26.46,1.06,1.06,0,0,0,0,.5.88.88,0,0,0,.25.51,1.66,1.66,0,0,0,.48.31,5.35,5.35,0,0,0,.64.2l.7.16a5.15,5.15,0,0,1,.7.2,1.91,1.91,0,0,1,.6.32,1.58,1.58,0,0,1,.42.5,1.8,1.8,0,0,1,.16.78,1.7,1.7,0,0,1-.62,1.4,2.76,2.76,0,0,1-1.75.49,3.14,3.14,0,0,1-.94-.13,2.27,2.27,0,0,1-.74-.39,1.78,1.78,0,0,1-.49-.66,2.19,2.19,0,0,1-.18-.92Z"/><path d="M76.66,121h.61v3.86a2.69,2.69,0,0,0,.45,1.74,1.81,1.81,0,0,0,1.45.53,2.6,2.6,0,0,0,.89-.14,1.33,1.33,0,0,0,.59-.42,1.72,1.72,0,0,0,.32-.71,4.17,4.17,0,0,0,.1-1V121h.61v4a2.77,2.77,0,0,1-.62,1.94,3,3,0,0,1-3.78,0,2.8,2.8,0,0,1-.62-1.93Z"/><path d="M83.91,127.52,86.45,121h.7l2.48,6.48H89l-.75-2h-3l-.76,2Zm1.6-2.55H88l-1.26-3.41Z"/><path d="M91.85,127.52V121h.61v6h3.48v.52Z"/></g></svg>