<svg xmlns="http://www.w3.org/2000/svg" viewBox="0 0 150 150"><defs><style>.cls-1{fill:none;stroke:#000;stroke-linecap:round;stroke-miterlimit:10;}</style></defs><title>Mesa de trabajo 4</title><g id="eventos_formales" data-name="eventos formales"><path class="cls-1" d="M74.55,76.88s-1.64,3.26-3.68,3.67a13.73,13.73,0,0,1-7.34-.82c-1.32-.66-2.86-1.63-4.08-1.63S45.17,84.63,44.35,85s-1.22,2-.41,3.26c.51.76,4.25,1.43,5.72,1.63,12.75,1.72,22.18,1.74,23.66,1.23A7.65,7.65,0,0,0,75,90.34a7.51,7.51,0,0,0,1.64-1.63,31.54,31.54,0,0,0,2-2.86S91.28,67.49,92.09,66.68s2-2,3.67-2a2.78,2.78,0,0,1,2.86,2.85V91.16h2.86V66.25a1.09,1.09,0,0,1,.23-.68,34.54,34.54,0,0,0,3.44-5.42,13.94,13.94,0,0,0,.81-9.8c-.81-2.44-4.48-7.34-6.52-7.75s-3.68,1.63-6.53,6.12S76.18,74.43,76.18,74.43"/></g><g id="Texto"><path d="M20.35,127.52V121h4.31v.52H21v2.34H24.3v.52H21V127h3.79v.52Z"/><path d="M26.63,121h.64l1.95,5.76,2-5.76h.63l-2.25,6.48h-.67Z"/><path d="M34.05,127.52V121h4.31v.52h-3.7v2.34H38v.52H34.66V127h3.79v.52Z"/><path d="M41.51,121.87h0v5.65h-.61V121h.69l3.74,5.66h0V121h.61v6.48h-.71Z"/><path d="M48.16,121h4.71v.52h-2v6h-.61v-6H48.16Z"/><path d="M54.84,124.29A4.41,4.41,0,0,1,55,123a3.23,3.23,0,0,1,.57-1.09,2.62,2.62,0,0,1,.94-.73,2.9,2.9,0,0,1,1.28-.27,3.22,3.22,0,0,1,1.33.26,2.66,2.66,0,0,1,1,.73,3.17,3.17,0,0,1,.58,1.09,4.52,4.52,0,0,1,.19,1.34,4.34,4.34,0,0,1-.19,1.32,3.28,3.28,0,0,1-.57,1.08,2.66,2.66,0,0,1-.95.73,3.31,3.31,0,0,1-2.62,0,2.66,2.66,0,0,1-.95-.73,3.28,3.28,0,0,1-.57-1.08A4.68,4.68,0,0,1,54.84,124.29Zm3,2.88a2.27,2.27,0,0,0,1.08-.24,2.2,2.2,0,0,0,.75-.63,2.78,2.78,0,0,0,.43-.92,4.34,4.34,0,0,0,.14-1.09,3.81,3.81,0,0,0-.17-1.21,2.55,2.55,0,0,0-.48-.91,2,2,0,0,0-.76-.58,2.53,2.53,0,0,0-1-.2,2.25,2.25,0,0,0-1.07.24,2.16,2.16,0,0,0-.75.65,2.52,2.52,0,0,0-.43.92,3.93,3.93,0,0,0-.14,1.09,4,4,0,0,0,.14,1.1,2.6,2.6,0,0,0,.43.92,2.11,2.11,0,0,0,.75.63A2.41,2.41,0,0,0,57.87,127.17Z"/><path d="M63.7,125.59a2,2,0,0,0,.19.73,1.51,1.51,0,0,0,.41.49,1.37,1.37,0,0,0,.57.27,2.61,2.61,0,0,0,.69.09,2.37,2.37,0,0,0,.75-.11,1.39,1.39,0,0,0,.51-.29,1.16,1.16,0,0,0,.3-.43,1.44,1.44,0,0,0,.09-.51,1,1,0,0,0-.17-.61,1.23,1.23,0,0,0-.45-.39,3.08,3.08,0,0,0-.63-.23l-.72-.18c-.25-.06-.5-.12-.73-.2a2.33,2.33,0,0,1-.63-.32,1.39,1.39,0,0,1-.45-.51,1.64,1.64,0,0,1-.17-.78,1.62,1.62,0,0,1,.14-.65,1.59,1.59,0,0,1,.41-.56,2.3,2.3,0,0,1,.69-.39,3.13,3.13,0,0,1,1-.14,2.75,2.75,0,0,1,1,.15,1.79,1.79,0,0,1,.68.42,1.72,1.72,0,0,1,.41.62,2,2,0,0,1,.13.74h-.58a1.54,1.54,0,0,0-.13-.63,1.33,1.33,0,0,0-.36-.45,1.73,1.73,0,0,0-.51-.25,2.33,2.33,0,0,0-.59-.08,2.21,2.21,0,0,0-.79.13,1.47,1.47,0,0,0-.51.34,1.12,1.12,0,0,0-.26.46,1.06,1.06,0,0,0,0,.5,1,1,0,0,0,.25.51,1.86,1.86,0,0,0,.49.31,3.59,3.59,0,0,0,.63.19L66,124a5.6,5.6,0,0,1,.7.2,2.43,2.43,0,0,1,.6.31,1.74,1.74,0,0,1,.42.51,1.81,1.81,0,0,1,.15.78,1.67,1.67,0,0,1-.62,1.4,2.71,2.71,0,0,1-1.74.49,3.14,3.14,0,0,1-.94-.13,2.23,2.23,0,0,1-.75-.39,1.9,1.9,0,0,1-.49-.66,2.36,2.36,0,0,1-.17-.92Z"/><path d="M74.09,127.52V121h4.17v.52H74.7v2.34h3.24v.52H74.7v3.1Z"/><path d="M80.25,124.29a4.75,4.75,0,0,1,.19-1.33,3.08,3.08,0,0,1,.58-1.09,2.67,2.67,0,0,1,.93-.73,2.92,2.92,0,0,1,1.29-.27,3.25,3.25,0,0,1,1.33.26,2.66,2.66,0,0,1,1,.73A3.17,3.17,0,0,1,86.1,123a4.52,4.52,0,0,1,.19,1.34,4.34,4.34,0,0,1-.19,1.32,3.28,3.28,0,0,1-.57,1.08,2.75,2.75,0,0,1-1,.73,3.34,3.34,0,0,1-2.63,0,2.62,2.62,0,0,1-.94-.73,3.1,3.1,0,0,1-.57-1.08A4.34,4.34,0,0,1,80.25,124.29Zm3,2.88a2.27,2.27,0,0,0,1.08-.24,2.3,2.3,0,0,0,.75-.63,2.78,2.78,0,0,0,.43-.92,4.34,4.34,0,0,0,.14-1.09,4.11,4.11,0,0,0-.17-1.21,2.55,2.55,0,0,0-.48-.91,2,2,0,0,0-.76-.58,2.56,2.56,0,0,0-1-.2,2.27,2.27,0,0,0-1.08.24,2.35,2.35,0,0,0-.75.65,2.89,2.89,0,0,0-.43.92,4.34,4.34,0,0,0-.14,1.09,4.42,4.42,0,0,0,.14,1.1,3,3,0,0,0,.43.92,2.3,2.3,0,0,0,.75.63A2.45,2.45,0,0,0,83.28,127.17Z"/><path d="M89.46,124.58v2.94h-.61V121h2.53a2.8,2.8,0,0,1,1.64.4,1.48,1.48,0,0,1,.57,1.3,1.64,1.64,0,0,1-.25,1,1.88,1.88,0,0,1-.8.62,1,1,0,0,1,.45.28,1.55,1.55,0,0,1,.24.44,2.1,2.1,0,0,1,.1.51,4.67,4.67,0,0,1,0,.52c0,.25,0,.45,0,.61a3.09,3.09,0,0,0,0,.4,1,1,0,0,0,.08.24.45.45,0,0,0,.1.13v.05H93a1.19,1.19,0,0,1-.14-.45,5.54,5.54,0,0,1-.06-.6c0-.21,0-.42,0-.61a3,3,0,0,0,0-.49,1.15,1.15,0,0,0-.17-.42.89.89,0,0,0-.3-.24,1.41,1.41,0,0,0-.38-.11l-.44,0Zm1.91-.52A2.53,2.53,0,0,0,92,124a1.19,1.19,0,0,0,.51-.23,1,1,0,0,0,.34-.4,1.16,1.16,0,0,0,.13-.58,1.33,1.33,0,0,0-.13-.6,1.1,1.1,0,0,0-.35-.36,1.42,1.42,0,0,0-.51-.19,2.81,2.81,0,0,0-.59-.06H89.46v2.5Z"/><path d="M96.18,127.52V121h.94l2.12,5.72h0l2.09-5.72h.92v6.48h-.61v-5.78h0l-2.12,5.78h-.58l-2.13-5.78h0v5.78Z"/><path d="M104.46,127.52,107,121h.69l2.49,6.48h-.63l-.75-2h-3l-.77,2Zm1.6-2.56h2.54l-1.27-3.4Z"/><path d="M112.41,127.52V121H113v6h3.47v.52Z"/><path d="M118.76,127.52V121h4.31v.52h-3.7v2.34h3.34v.52h-3.34V127h3.79v.52Z"/><path d="M125.86,125.59a2,2,0,0,0,.2.73,1.43,1.43,0,0,0,1,.76,2.63,2.63,0,0,0,.7.09,2.35,2.35,0,0,0,.74-.11,1.53,1.53,0,0,0,.52-.29,1.13,1.13,0,0,0,.29-.43,1.44,1.44,0,0,0,.09-.51,1,1,0,0,0-.17-.61,1.28,1.28,0,0,0-.44-.39,3.58,3.58,0,0,0-.63-.23l-.73-.18c-.25-.06-.49-.12-.73-.2a2.33,2.33,0,0,1-.63-.32,1.59,1.59,0,0,1-.45-.51,1.64,1.64,0,0,1-.17-.78,1.62,1.62,0,0,1,.14-.65,1.5,1.5,0,0,1,.42-.56,2.13,2.13,0,0,1,.68-.39,3.13,3.13,0,0,1,1-.14,2.85,2.85,0,0,1,1,.15,1.87,1.87,0,0,1,.68.42,1.7,1.7,0,0,1,.4.62,2,2,0,0,1,.14.74h-.59a1.39,1.39,0,0,0-.13-.63,1.22,1.22,0,0,0-.36-.45,1.62,1.62,0,0,0-.51-.25,2.33,2.33,0,0,0-.59-.08,2.25,2.25,0,0,0-.79.13,1.47,1.47,0,0,0-.51.34,1.24,1.24,0,0,0-.26.46,1.06,1.06,0,0,0,0,.5.89.89,0,0,0,.26.51,1.66,1.66,0,0,0,.48.31,3.7,3.7,0,0,0,.64.19l.7.17a5.15,5.15,0,0,1,.7.2,2.12,2.12,0,0,1,.6.31,1.74,1.74,0,0,1,.42.51,1.8,1.8,0,0,1,.16.78,1.68,1.68,0,0,1-.63,1.4,2.71,2.71,0,0,1-1.74.49,3.14,3.14,0,0,1-.94-.13,2.18,2.18,0,0,1-.74-.39,1.81,1.81,0,0,1-.5-.66,2.36,2.36,0,0,1-.17-.92Z"/></g></svg>