<svg xmlns="http://www.w3.org/2000/svg" viewBox="0 0 150 150"><defs><style>.cls-1,.cls-2{fill:none;stroke:#000;stroke-miterlimit:10;}.cls-2{stroke-linecap:round;}</style></defs><title>Mesa de trabajo 5</title><g id="primavera"><circle class="cls-1" cx="69.52" cy="66.11" r="1.36"/><circle class="cls-1" cx="71.79" cy="72.47" r="1.36"/><circle class="cls-1" cx="78.61" cy="72.93" r="1.36"/><circle class="cls-1" cx="80.43" cy="66.11" r="1.36"/><circle class="cls-1" cx="74.97" cy="62.02" r="1.36"/><path class="cls-2" d="M54.88,48.88A6,6,0,0,0,47.4,53a6.41,6.41,0,0,0-.22,2.87c0,.28.26,1.48.26,1.81a5.8,5.8,0,0,1-.28,1.68,5.41,5.41,0,0,1-.44,1c-.21.38-1.46,1.63-1.77,2A5.92,5.92,0,0,0,48.27,72l.38,0c1.59.16,4.32.16,9.78-.75,3.7-.62,7.52-1.54,9.09-1.82,1-.18,3.26-.64,3.19,0-.06.45-3.4,2.24-5.92,3.18-3.63,1.37-9.55,3.87-11.82,5a5.89,5.89,0,0,0-3.07,2.66,6.28,6.28,0,0,0,1.22,8.44A6.36,6.36,0,0,0,53.74,90c.28.06,1.47.27,1.78.39a5.75,5.75,0,0,1,1.48.84,5.62,5.62,0,0,1,.83.78c.29.33,1,1.94,1.26,2.35a5.91,5.91,0,0,0,10.22.26,2.21,2.21,0,0,0,.18-.34A13.69,13.69,0,0,0,70,93a71.07,71.07,0,0,0,2-7.78c.49-2.24.63-3.11,1-5,.85-4.32,1.25-7.51,2.16-7.51s.91,2.73,1.76,7.51c.33,1.88.5,2.74,1,5A71.07,71.07,0,0,0,80,93a13.69,13.69,0,0,0,.51,1.31,2.21,2.21,0,0,0,.18.34,5.91,5.91,0,0,0,10.22-.26c.24-.41,1-2,1.26-2.35a5.62,5.62,0,0,1,.83-.78,5.75,5.75,0,0,1,1.48-.84c.31-.12,1.5-.33,1.78-.39a6.36,6.36,0,0,0,2.62-1.2,6.28,6.28,0,0,0,1.22-8.44A5.89,5.89,0,0,0,97,77.7c-2.27-1.13-8.19-3.63-11.82-5-2.52-.94-6.37-2.73-5.92-3.18s2.19-.18,3.19,0c1.57.28,5.39,1.2,9.09,1.82,5.46.91,8.19.91,9.78.75l.38,0a5.92,5.92,0,0,0,3.32-9.68c-.31-.36-1.56-1.61-1.77-2a5.41,5.41,0,0,1-.44-1,5.8,5.8,0,0,1-.28-1.68c0-.33.21-1.53.26-1.81A6.41,6.41,0,0,0,102.6,53a6,6,0,0,0-7.48-4.08,4.5,4.5,0,0,0-1,.44c-.3.18-.59.39-.88.59a69.54,69.54,0,0,0-5.73,4.6,50,50,0,0,0-3.64,3.64c-1.58,1.62-2.39,2.62-3.64,4.09-.31.37-1.33,1.33-1.36,1.37-.91.91-1.37.91-.91-.46a11.13,11.13,0,0,1,.91-2.27c1-2,1.78-3.17,2.27-4.09.91-1.69,1.29-2.48,2.28-4.55a71.55,71.55,0,0,0,3.14-7.41,10.87,10.87,0,0,0,.41-1.34l.06-.38a5.94,5.94,0,0,0-4.32-6.35,6,6,0,0,0-3.91.28,25.66,25.66,0,0,1-2.43,1.09,6.12,6.12,0,0,1-1.14.11h-.4a6.12,6.12,0,0,1-1.14-.11A25.66,25.66,0,0,1,71.23,37a6,6,0,0,0-3.91-.28A5.94,5.94,0,0,0,63,43.11l.06.38a10.87,10.87,0,0,0,.41,1.34,71.55,71.55,0,0,0,3.14,7.41c1,2.07,1.37,2.86,2.28,4.55.49.92,1.25,2.05,2.27,4.09a11.13,11.13,0,0,1,.91,2.27c.46,1.37,0,1.37-.91.46,0,0-1-1-1.36-1.37-1.25-1.47-2.06-2.47-3.64-4.09a50,50,0,0,0-3.64-3.64,56,56,0,0,0-5.05-4.09"/></g><g id="Texto"><path d="M45.05,127.52V121h2.37a3.33,3.33,0,0,1,1,.14,1.6,1.6,0,0,1,.65.4,1.48,1.48,0,0,1,.34.58,2.61,2.61,0,0,1,.09.69,1.61,1.61,0,0,1-.22.89,1.66,1.66,0,0,1-.57.55,2.54,2.54,0,0,1-.8.29,5.35,5.35,0,0,1-.89.08H45.66v2.86Zm2-3.38a4.58,4.58,0,0,0,.78-.06,1.42,1.42,0,0,0,.58-.2,1,1,0,0,0,.37-.41,1.56,1.56,0,0,0,.13-.67,1.12,1.12,0,0,0-.4-.92,2.07,2.07,0,0,0-1.28-.32H45.66v2.58Z"/><path d="M52.53,124.58v2.94h-.61V121h2.53a2.8,2.8,0,0,1,1.64.4,1.48,1.48,0,0,1,.57,1.3,1.64,1.64,0,0,1-.25,1,1.88,1.88,0,0,1-.8.62.93.93,0,0,1,.44.28,1.36,1.36,0,0,1,.25.44,2.1,2.1,0,0,1,.1.51,4.67,4.67,0,0,1,0,.52c0,.25,0,.45,0,.61s0,.3.06.4a1.84,1.84,0,0,0,.07.24.47.47,0,0,0,.11.13v.05H56a1.19,1.19,0,0,1-.14-.45,5.54,5.54,0,0,1-.06-.6c0-.21,0-.42,0-.61a4.69,4.69,0,0,0,0-.49,1,1,0,0,0-.18-.42.85.85,0,0,0-.29-.24,1.41,1.41,0,0,0-.38-.11l-.44,0Zm1.91-.52a2.53,2.53,0,0,0,.63-.08,1.31,1.31,0,0,0,.51-.23,1,1,0,0,0,.34-.4,1.27,1.27,0,0,0,.13-.58,1.33,1.33,0,0,0-.13-.6,1,1,0,0,0-.36-.36,1.3,1.3,0,0,0-.5-.19,2.88,2.88,0,0,0-.59-.06H52.53v2.5Z"/><path d="M59.49,127.52V121h.62v6.48Z"/><path d="M63.1,127.52V121H64l2.12,5.72h0L68.27,121h.92v6.48h-.61v-5.78h0l-2.12,5.78h-.58l-2.13-5.78h0v5.78Z"/><path d="M71.38,127.52,73.93,121h.69l2.49,6.48h-.63l-.75-2h-3l-.77,2ZM73,125h2.54l-1.27-3.4Z"/><path d="M78.76,121h.64l1.95,5.76,2-5.76h.64l-2.25,6.48H81Z"/><path d="M86.18,127.52V121h4.31v.52h-3.7v2.34h3.34v.52H86.79V127h3.79v.52Z"/><path d="M93.63,124.58v2.94H93V121h2.54a2.76,2.76,0,0,1,1.63.4,1.48,1.48,0,0,1,.57,1.3,1.64,1.64,0,0,1-.25,1,1.88,1.88,0,0,1-.8.62,1,1,0,0,1,.45.28,1.18,1.18,0,0,1,.24.44,1.71,1.71,0,0,1,.1.51c0,.18,0,.35,0,.52a5,5,0,0,0,0,.61,3.09,3.09,0,0,0,.05.4,1,1,0,0,0,.08.24.35.35,0,0,0,.11.13v.05h-.68a1.41,1.41,0,0,1-.14-.45,5.54,5.54,0,0,1-.06-.6c0-.21,0-.42,0-.61a3,3,0,0,0,0-.49,1,1,0,0,0-.17-.42,1,1,0,0,0-.29-.24,1.6,1.6,0,0,0-.39-.11l-.43,0Zm1.91-.52a2.47,2.47,0,0,0,.63-.08,1.19,1.19,0,0,0,.51-.23,1,1,0,0,0,.34-.4,1.16,1.16,0,0,0,.13-.58,1.21,1.21,0,0,0-.13-.6,1.1,1.1,0,0,0-.35-.36,1.42,1.42,0,0,0-.51-.19,2.81,2.81,0,0,0-.59-.06H93.63v2.5Z"/><path d="M99.79,127.52l2.54-6.48h.7l2.48,6.48h-.63l-.75-2h-2.95l-.76,2Zm1.6-2.56h2.54l-1.27-3.4Z"/></g></svg>