<svg xmlns="http://www.w3.org/2000/svg" viewBox="0 0 150 150"><defs><style>.cls-1{fill:none;stroke:#000;stroke-linecap:round;stroke-miterlimit:10;}</style></defs><title>Mesa de trabajo 1</title><g id="vacaiones"><line class="cls-1" x1="99.5" y1="50.8" x2="99.5" y2="81.9"/></g><g id="trabajo"><g id="Compu_ic" data-name="Compu ic"><polyline class="cls-1" points="50.77 81.89 50.77 48.54 50.77 48.26 99.2 48.26"/><line class="cls-1" x1="99.5" y1="82.1" x2="53.3" y2="82.1"/><path class="cls-1" d="M47.83,85H69.51a1.2,1.2,0,0,0,1.16,1.23h8.38a1.13,1.13,0,0,0,.81-.36A1.26,1.26,0,0,0,80.2,85h26.3v.15a4.34,4.34,0,0,1-4.19,4.47H47.69a4.34,4.34,0,0,1-4.19-4.47V85H46"/><path class="cls-1" d="M47.83,84.85V46.34a2,2,0,0,1,2-2h50.42a2,2,0,0,1,2,2V82.53"/></g></g><g id="Texto"><path d="M50.83,121h4.72v.52h-2v6h-.61v-6H50.83Z"/><path d="M58.38,124.58v2.94h-.62V121H60.3a2.8,2.8,0,0,1,1.64.4,1.48,1.48,0,0,1,.57,1.3,1.72,1.72,0,0,1-.25,1,1.94,1.94,0,0,1-.8.62.93.93,0,0,1,.44.28,1.36,1.36,0,0,1,.25.44,2.1,2.1,0,0,1,.1.51,4.67,4.67,0,0,1,0,.52c0,.25,0,.45,0,.61s0,.3.06.4a1.84,1.84,0,0,0,.07.24.47.47,0,0,0,.11.13v.05h-.67a1.19,1.19,0,0,1-.14-.45c0-.19-.05-.39-.07-.6s0-.42,0-.61a4.69,4.69,0,0,0,0-.49,1,1,0,0,0-.18-.42.85.85,0,0,0-.29-.24,1.41,1.41,0,0,0-.38-.11l-.44,0Zm1.91-.52a2.59,2.59,0,0,0,.63-.08,1.31,1.31,0,0,0,.51-.23,1,1,0,0,0,.34-.4,1.27,1.27,0,0,0,.13-.58,1.26,1.26,0,0,0-.13-.59,1,1,0,0,0-.36-.37,1.3,1.3,0,0,0-.5-.19,2.88,2.88,0,0,0-.59-.06H58.38v2.5Z"/><path d="M64.53,127.52,67.08,121h.69l2.49,6.48h-.63l-.75-2H65.93l-.77,2Zm1.6-2.55h2.54l-1.27-3.41Z"/><path d="M72.48,127.52V121h2.34a3.43,3.43,0,0,1,1,.12,1.86,1.86,0,0,1,.66.33,1.37,1.37,0,0,1,.38.52,2,2,0,0,1,.11.66,1.74,1.74,0,0,1-.09.59,1.46,1.46,0,0,1-.23.41,1.15,1.15,0,0,1-.33.26,1.07,1.07,0,0,1-.38.13v0a1.5,1.5,0,0,1,1,.53,1.74,1.74,0,0,1,.33,1.08,2,2,0,0,1-.16.86,1.54,1.54,0,0,1-.43.57,2,2,0,0,1-.67.31,3.91,3.91,0,0,1-.86.09Zm.61-3.62h1.55a3.08,3.08,0,0,0,.8-.08,1.2,1.2,0,0,0,.52-.24.9.9,0,0,0,.29-.38,1.74,1.74,0,0,0,.08-.53,1.18,1.18,0,0,0-.1-.52.78.78,0,0,0-.31-.34,1.59,1.59,0,0,0-.57-.19,5,5,0,0,0-.85-.06H73.09Zm0,3.1h1.56a7.48,7.48,0,0,0,.88,0,1.69,1.69,0,0,0,.61-.18.9.9,0,0,0,.37-.4,1.59,1.59,0,0,0,.12-.68,1.36,1.36,0,0,0-.14-.65,1,1,0,0,0-.38-.38,2,2,0,0,0-.61-.19,6.14,6.14,0,0,0-.78,0H73.09Z"/><path d="M79.24,127.52,81.79,121h.69L85,127.52h-.63l-.75-2h-3l-.76,2Zm1.6-2.55h2.54l-1.27-3.41Z"/><path d="M87.27,125.47c0,.2,0,.4,0,.6a1.53,1.53,0,0,0,.13.54,1,1,0,0,0,.35.38,1.26,1.26,0,0,0,.67.14,1,1,0,0,0,.88-.36,1.77,1.77,0,0,0,.26-1V121h.61v4.71a2.12,2.12,0,0,1-.44,1.44,1.74,1.74,0,0,1-1.39.5,1.86,1.86,0,0,1-.88-.18A1.47,1.47,0,0,1,87,127a1.92,1.92,0,0,1-.24-.71,4.5,4.5,0,0,1-.07-.83Z"/><path d="M92.78,124.29A4.41,4.41,0,0,1,93,123a3.23,3.23,0,0,1,.57-1.09,2.67,2.67,0,0,1,.93-.73,3,3,0,0,1,1.29-.27,3.07,3.07,0,0,1,1.33.27,2.63,2.63,0,0,1,1,.72,3.17,3.17,0,0,1,.58,1.09,4.52,4.52,0,0,1,.19,1.34,4.34,4.34,0,0,1-.19,1.32,3.28,3.28,0,0,1-.57,1.08,2.66,2.66,0,0,1-1,.73,3,3,0,0,1-1.31.27,3.05,3.05,0,0,1-1.32-.27,2.71,2.71,0,0,1-.94-.73,3.28,3.28,0,0,1-.57-1.08A4.68,4.68,0,0,1,92.78,124.29Zm3,2.88a2.27,2.27,0,0,0,1.08-.24,2.3,2.3,0,0,0,.75-.63,2.78,2.78,0,0,0,.43-.92,4.34,4.34,0,0,0,.14-1.09,3.81,3.81,0,0,0-.17-1.21,2.55,2.55,0,0,0-.48-.91,2,2,0,0,0-.76-.58,2.53,2.53,0,0,0-1-.2,2.21,2.21,0,0,0-1.08.25,2.09,2.09,0,0,0-.74.64,2.6,2.6,0,0,0-.43.92,3.93,3.93,0,0,0-.14,1.09,4,4,0,0,0,.14,1.1,2.6,2.6,0,0,0,.43.92,2.16,2.16,0,0,0,.74.63A2.48,2.48,0,0,0,95.81,127.17Z"/></g></svg>