<svg xmlns="http://www.w3.org/2000/svg" viewBox="0 0 150 150"><defs><style>.cls-1{fill:none;stroke:#000;stroke-linecap:round;stroke-miterlimit:10;}</style></defs><title>Mesa de trabajo 6</title><g id="vacaiones"><path class="cls-1" d="M66.5,61.5,56.17,55.66a18.72,18.72,0,0,1-1.66-.92c-.28-.19-.78-.69-.66-1.13.19-.71,2.54-1.47,4.61-1.16s19.9,5.44,19.9,5.44l16.77-9.68a11.64,11.64,0,0,1,5.5-.91c3.51.22,6.42.05,5.78,1.55a19.73,19.73,0,0,1-4.62,5.67L85.87,63.71a.5.5,0,0,0-.22.28L77.81,87.93A50.37,50.37,0,0,1,76.22,93c-.52,1.05-1.77,2.15-2.1,1.59s-.4-19.07-.42-23.34a.5.5,0,0,0-.76-.43L56.2,80.47l-1.41.82c-1.44.83-2.41.08-1.75-2.38.24-.89.69-2.06.43-2.51a6.35,6.35,0,0,0-2-1.48c-1.58-.92-2.87-1.73-6.26-3.81-1.71-1-2-1.59-1.52-1.86,2.83-1.64,4.23-2.44,6.29-2.13s9,1.94,9,1.94l9.75-5.63,9.86-5.69"/></g><g id="Texto"><path d="M40.34,121H41l2,5.76L44.87,121h.64l-2.25,6.48h-.67Z"/><path d="M47.16,127.52,49.71,121h.69l2.48,6.48h-.63l-.74-2h-3l-.76,2Zm1.6-2.56H51.3L50,121.56Z"/><path d="M59.71,122.92a1.91,1.91,0,0,0-.71-1.18,2.36,2.36,0,0,0-1.34-.35,2,2,0,0,0-1,.24,1.89,1.89,0,0,0-.69.63,2.61,2.61,0,0,0-.41.91,4.28,4.28,0,0,0-.13,1.09,5.29,5.29,0,0,0,.11,1.06,2.9,2.9,0,0,0,.38.94,1.93,1.93,0,0,0,.7.66,2.17,2.17,0,0,0,1.11.25,2,2,0,0,0,.75-.14,1.84,1.84,0,0,0,.6-.37,2.38,2.38,0,0,0,.43-.56,2.75,2.75,0,0,0,.27-.71h.64a4.18,4.18,0,0,1-.32.88,2.66,2.66,0,0,1-.54.74,2.69,2.69,0,0,1-.82.5,3.23,3.23,0,0,1-1.13.18,2.78,2.78,0,0,1-1.28-.27,2.52,2.52,0,0,1-.87-.75,3.14,3.14,0,0,1-.49-1.08,5.53,5.53,0,0,1-.15-1.31,4.52,4.52,0,0,1,.23-1.57,2.7,2.7,0,0,1,.63-1.06,2.52,2.52,0,0,1,1-.6,3.76,3.76,0,0,1,1.19-.18,3.12,3.12,0,0,1,.93.13,2.43,2.43,0,0,1,.75.39A2.13,2.13,0,0,1,60,122a2.61,2.61,0,0,1,.29.88Z"/><path d="M62.36,127.52,64.91,121h.69l2.48,6.48h-.63l-.74-2h-3l-.76,2ZM64,125H66.5l-1.27-3.4Z"/><path d="M74.91,122.92a1.91,1.91,0,0,0-.71-1.18,2.36,2.36,0,0,0-1.34-.35,2,2,0,0,0-1,.24,1.89,1.89,0,0,0-.69.63,2.61,2.61,0,0,0-.41.91,4.79,4.79,0,0,0-.13,1.09,5.29,5.29,0,0,0,.11,1.06,2.9,2.9,0,0,0,.38.94,2,2,0,0,0,.7.66,2.17,2.17,0,0,0,1.11.25,2,2,0,0,0,.75-.14,1.84,1.84,0,0,0,.6-.37,2.14,2.14,0,0,0,.43-.56,2.75,2.75,0,0,0,.27-.71h.64a3.69,3.69,0,0,1-.32.88,2.66,2.66,0,0,1-.54.74,2.69,2.69,0,0,1-.82.5,3.23,3.23,0,0,1-1.13.18,2.81,2.81,0,0,1-1.28-.27,2.52,2.52,0,0,1-.87-.75,3.14,3.14,0,0,1-.49-1.08,5.53,5.53,0,0,1-.15-1.31,4.77,4.77,0,0,1,.23-1.57,2.7,2.7,0,0,1,.63-1.06,2.52,2.52,0,0,1,1-.6,3.76,3.76,0,0,1,1.19-.18A3.12,3.12,0,0,1,74,121a2.43,2.43,0,0,1,.75.39,2.13,2.13,0,0,1,.54.65,2.85,2.85,0,0,1,.3.88Z"/><path d="M78.37,127.52V121H79v6.48Z"/><path d="M81.75,124.29A4.41,4.41,0,0,1,82,123a3.23,3.23,0,0,1,.57-1.09,2.62,2.62,0,0,1,.94-.73,2.9,2.9,0,0,1,1.28-.27,3.22,3.22,0,0,1,1.33.26,2.66,2.66,0,0,1,1,.73A3.17,3.17,0,0,1,87.6,123a4.52,4.52,0,0,1,.19,1.34,4.34,4.34,0,0,1-.19,1.32,3.28,3.28,0,0,1-.57,1.08,2.66,2.66,0,0,1-1,.73,3.31,3.31,0,0,1-2.62,0,2.66,2.66,0,0,1-.95-.73,3.28,3.28,0,0,1-.57-1.08A4.68,4.68,0,0,1,81.75,124.29Zm3,2.88a2.27,2.27,0,0,0,1.08-.24,2.11,2.11,0,0,0,.75-.63,2.78,2.78,0,0,0,.43-.92,4.34,4.34,0,0,0,.14-1.09,3.81,3.81,0,0,0-.17-1.21,2.55,2.55,0,0,0-.48-.91,2,2,0,0,0-.76-.58,2.53,2.53,0,0,0-1-.2,2.25,2.25,0,0,0-1.07.24,2.16,2.16,0,0,0-.75.65,2.52,2.52,0,0,0-.43.92,3.93,3.93,0,0,0-.14,1.09,4,4,0,0,0,.14,1.1,2.6,2.6,0,0,0,.43.92,2.11,2.11,0,0,0,.75.63A2.41,2.41,0,0,0,84.78,127.17Z"/><path d="M91,121.87h0v5.65h-.61V121H91l3.75,5.66h0V121h.61v6.48H94.7Z"/><path d="M98.21,127.52V121h4.31v.52h-3.7v2.34h3.34v.52H98.82V127h3.79v.52Z"/><path d="M105.31,125.59a2,2,0,0,0,.19.73,1.51,1.51,0,0,0,.41.49,1.37,1.37,0,0,0,.57.27,2.5,2.5,0,0,0,.69.09,2.37,2.37,0,0,0,.75-.11,1.39,1.39,0,0,0,.51-.29,1.13,1.13,0,0,0,.29-.43,1.25,1.25,0,0,0,.1-.51,1,1,0,0,0-.17-.61,1.41,1.41,0,0,0-.45-.39,3.08,3.08,0,0,0-.63-.23l-.73-.18c-.25-.06-.49-.12-.73-.2a2.67,2.67,0,0,1-.63-.32,1.46,1.46,0,0,1-.44-.51,1.53,1.53,0,0,1-.17-.78A1.46,1.46,0,0,1,105,122a1.59,1.59,0,0,1,.41-.56,2.08,2.08,0,0,1,.69-.39,3,3,0,0,1,1-.14,2.76,2.76,0,0,1,1,.15,1.87,1.87,0,0,1,.68.42,1.72,1.72,0,0,1,.41.62,2,2,0,0,1,.13.74h-.58a1.54,1.54,0,0,0-.13-.63,1.33,1.33,0,0,0-.36-.45,1.73,1.73,0,0,0-.51-.25,2.41,2.41,0,0,0-.6-.08,2.19,2.19,0,0,0-.78.13,1.3,1.3,0,0,0-.51.34,1,1,0,0,0-.26.46,1.06,1.06,0,0,0,0,.5.88.88,0,0,0,.25.51,1.58,1.58,0,0,0,.49.31,3.59,3.59,0,0,0,.63.19l.71.17a5,5,0,0,1,.69.2,2.12,2.12,0,0,1,.6.31,1.48,1.48,0,0,1,.42.51,1.67,1.67,0,0,1,.16.78,1.7,1.7,0,0,1-.62,1.4,2.76,2.76,0,0,1-1.75.49,3.08,3.08,0,0,1-.93-.13,2.23,2.23,0,0,1-.75-.39,1.9,1.9,0,0,1-.49-.66,2.19,2.19,0,0,1-.18-.92Z"/></g></svg>